<mxfile host="Electron" modified="2023-11-07T12:01:39.739Z" agent="Mozilla/5.0 (Windows NT 10.0; Win64; x64) AppleWebKit/537.36 (KHTML, like Gecko) draw.io/22.0.3 Chrome/114.0.5735.289 Electron/25.8.4 Safari/537.36" etag="HPB7iMuefVIabh6HfDVc" version="22.0.3" type="device">
  <diagram id="yaL_qUkIQasQtw-u88R-" name="Page-1">
    <mxGraphModel dx="1948" dy="820" grid="1" gridSize="10" guides="1" tooltips="1" connect="1" arrows="1" fold="1" page="1" pageScale="1" pageWidth="850" pageHeight="1100" math="0" shadow="0">
      <root>
        <mxCell id="0" />
        <mxCell id="1" parent="0" />
        <mxCell id="eiXm5y5_MY9LgbYOOLB_-6" style="edgeStyle=orthogonalEdgeStyle;rounded=0;orthogonalLoop=1;jettySize=auto;html=1;exitX=0.5;exitY=1;exitDx=0;exitDy=0;entryX=0.5;entryY=0;entryDx=0;entryDy=0;fontFamily=Times New Roman;shadow=0;" parent="1" source="eiXm5y5_MY9LgbYOOLB_-1" target="eiXm5y5_MY9LgbYOOLB_-3" edge="1">
          <mxGeometry relative="1" as="geometry" />
        </mxCell>
        <mxCell id="eiXm5y5_MY9LgbYOOLB_-7" style="rounded=0;orthogonalLoop=1;jettySize=auto;html=1;exitX=0.5;exitY=1;exitDx=0;exitDy=0;entryX=0.5;entryY=0;entryDx=0;entryDy=0;fontFamily=Times New Roman;shadow=0;" parent="1" source="eiXm5y5_MY9LgbYOOLB_-1" target="eiXm5y5_MY9LgbYOOLB_-5" edge="1">
          <mxGeometry relative="1" as="geometry" />
        </mxCell>
        <mxCell id="eiXm5y5_MY9LgbYOOLB_-8" style="edgeStyle=none;rounded=0;orthogonalLoop=1;jettySize=auto;html=1;exitX=0.5;exitY=1;exitDx=0;exitDy=0;entryX=0.5;entryY=0;entryDx=0;entryDy=0;fontFamily=Times New Roman;shadow=0;" parent="1" source="eiXm5y5_MY9LgbYOOLB_-1" target="eiXm5y5_MY9LgbYOOLB_-4" edge="1">
          <mxGeometry relative="1" as="geometry" />
        </mxCell>
        <mxCell id="eiXm5y5_MY9LgbYOOLB_-1" value="&lt;b&gt;U1&lt;/b&gt;" style="ellipse;whiteSpace=wrap;html=1;aspect=fixed;fillColor=none;strokeWidth=3;fontFamily=Times New Roman;fontSize=20;shadow=0;" parent="1" vertex="1">
          <mxGeometry x="80" y="40" width="80" height="80" as="geometry" />
        </mxCell>
        <mxCell id="eiXm5y5_MY9LgbYOOLB_-21" style="edgeStyle=none;rounded=0;orthogonalLoop=1;jettySize=auto;html=1;exitX=0.5;exitY=1;exitDx=0;exitDy=0;entryX=0.5;entryY=0;entryDx=0;entryDy=0;fontFamily=Times New Roman;" parent="1" source="eiXm5y5_MY9LgbYOOLB_-3" target="eiXm5y5_MY9LgbYOOLB_-12" edge="1">
          <mxGeometry relative="1" as="geometry" />
        </mxCell>
        <mxCell id="eiXm5y5_MY9LgbYOOLB_-22" style="edgeStyle=none;rounded=0;orthogonalLoop=1;jettySize=auto;html=1;exitX=0.5;exitY=1;exitDx=0;exitDy=0;entryX=0.5;entryY=0;entryDx=0;entryDy=0;fontFamily=Times New Roman;" parent="1" source="eiXm5y5_MY9LgbYOOLB_-3" target="eiXm5y5_MY9LgbYOOLB_-11" edge="1">
          <mxGeometry relative="1" as="geometry" />
        </mxCell>
        <mxCell id="eiXm5y5_MY9LgbYOOLB_-3" value="&lt;b style=&quot;font-size: 20px;&quot;&gt;S2&lt;/b&gt;" style="ellipse;whiteSpace=wrap;html=1;aspect=fixed;fillColor=none;strokeWidth=2;fontFamily=Times New Roman;fontSize=20;shadow=0;" parent="1" vertex="1">
          <mxGeometry x="80" y="250" width="80" height="80" as="geometry" />
        </mxCell>
        <mxCell id="eiXm5y5_MY9LgbYOOLB_-16" style="edgeStyle=none;rounded=0;orthogonalLoop=1;jettySize=auto;html=1;exitX=0.5;exitY=1;exitDx=0;exitDy=0;entryX=0.5;entryY=0;entryDx=0;entryDy=0;fontFamily=Times New Roman;" parent="1" source="eiXm5y5_MY9LgbYOOLB_-4" target="eiXm5y5_MY9LgbYOOLB_-14" edge="1">
          <mxGeometry relative="1" as="geometry" />
        </mxCell>
        <mxCell id="eiXm5y5_MY9LgbYOOLB_-17" style="edgeStyle=none;rounded=0;orthogonalLoop=1;jettySize=auto;html=1;exitX=0.5;exitY=1;exitDx=0;exitDy=0;entryX=0.5;entryY=0;entryDx=0;entryDy=0;fontFamily=Times New Roman;" parent="1" source="eiXm5y5_MY9LgbYOOLB_-4" target="eiXm5y5_MY9LgbYOOLB_-10" edge="1">
          <mxGeometry relative="1" as="geometry" />
        </mxCell>
        <mxCell id="eiXm5y5_MY9LgbYOOLB_-4" value="&lt;b style=&quot;font-size: 20px;&quot;&gt;S1&lt;/b&gt;" style="ellipse;whiteSpace=wrap;html=1;aspect=fixed;fillColor=none;strokeWidth=2;fontFamily=Times New Roman;fontSize=20;shadow=0;" parent="1" vertex="1">
          <mxGeometry x="-40" y="250" width="80" height="80" as="geometry" />
        </mxCell>
        <mxCell id="eiXm5y5_MY9LgbYOOLB_-23" style="edgeStyle=none;rounded=0;orthogonalLoop=1;jettySize=auto;html=1;exitX=0.5;exitY=1;exitDx=0;exitDy=0;entryX=0.5;entryY=0;entryDx=0;entryDy=0;fontFamily=Times New Roman;" parent="1" source="eiXm5y5_MY9LgbYOOLB_-5" target="eiXm5y5_MY9LgbYOOLB_-18" edge="1">
          <mxGeometry relative="1" as="geometry" />
        </mxCell>
        <mxCell id="eiXm5y5_MY9LgbYOOLB_-24" style="edgeStyle=none;rounded=0;orthogonalLoop=1;jettySize=auto;html=1;exitX=0.5;exitY=1;exitDx=0;exitDy=0;entryX=0.5;entryY=0;entryDx=0;entryDy=0;fontFamily=Times New Roman;" parent="1" source="eiXm5y5_MY9LgbYOOLB_-5" target="eiXm5y5_MY9LgbYOOLB_-20" edge="1">
          <mxGeometry relative="1" as="geometry" />
        </mxCell>
        <mxCell id="eiXm5y5_MY9LgbYOOLB_-25" style="edgeStyle=none;rounded=0;orthogonalLoop=1;jettySize=auto;html=1;exitX=0.5;exitY=1;exitDx=0;exitDy=0;entryX=0.5;entryY=0;entryDx=0;entryDy=0;fontFamily=Times New Roman;" parent="1" source="eiXm5y5_MY9LgbYOOLB_-5" target="eiXm5y5_MY9LgbYOOLB_-19" edge="1">
          <mxGeometry relative="1" as="geometry" />
        </mxCell>
        <mxCell id="eiXm5y5_MY9LgbYOOLB_-5" value="&lt;b style=&quot;font-size: 20px;&quot;&gt;S3&lt;/b&gt;" style="ellipse;whiteSpace=wrap;html=1;aspect=fixed;fillColor=none;strokeWidth=2;fontFamily=Times New Roman;fontSize=20;shadow=0;" parent="1" vertex="1">
          <mxGeometry x="200" y="250" width="80" height="80" as="geometry" />
        </mxCell>
        <mxCell id="eiXm5y5_MY9LgbYOOLB_-10" value="&lt;font style=&quot;font-size: 22px;&quot;&gt;SS1&lt;/font&gt;" style="ellipse;whiteSpace=wrap;html=1;aspect=fixed;fillColor=none;strokeWidth=1;fontFamily=Times New Roman;fontSize=22;" parent="1" vertex="1">
          <mxGeometry x="-100" y="462.5" width="60" height="60" as="geometry" />
        </mxCell>
        <mxCell id="eiXm5y5_MY9LgbYOOLB_-11" value="&lt;font style=&quot;font-size: 22px;&quot;&gt;SS5&lt;/font&gt;" style="ellipse;whiteSpace=wrap;html=1;aspect=fixed;fillColor=none;strokeWidth=1;fontFamily=Times New Roman;fontSize=22;" parent="1" vertex="1">
          <mxGeometry x="140" y="460" width="60" height="60" as="geometry" />
        </mxCell>
        <mxCell id="eiXm5y5_MY9LgbYOOLB_-12" value="&lt;font style=&quot;font-size: 22px;&quot;&gt;SS4&lt;/font&gt;" style="ellipse;whiteSpace=wrap;html=1;aspect=fixed;fillColor=none;strokeWidth=1;fontFamily=Times New Roman;fontSize=22;" parent="1" vertex="1">
          <mxGeometry x="60" y="460" width="60" height="60" as="geometry" />
        </mxCell>
        <mxCell id="eiXm5y5_MY9LgbYOOLB_-14" value="&lt;font style=&quot;font-size: 22px;&quot;&gt;SS2&lt;/font&gt;" style="ellipse;whiteSpace=wrap;html=1;aspect=fixed;fillColor=none;strokeWidth=1;fontFamily=Times New Roman;fontSize=22;" parent="1" vertex="1">
          <mxGeometry x="-20" y="460" width="60" height="60" as="geometry" />
        </mxCell>
        <mxCell id="eiXm5y5_MY9LgbYOOLB_-18" value="&lt;font style=&quot;font-size: 22px;&quot;&gt;SS6&lt;/font&gt;" style="ellipse;whiteSpace=wrap;html=1;aspect=fixed;fillColor=none;strokeWidth=1;fontFamily=Times New Roman;fontSize=22;" parent="1" vertex="1">
          <mxGeometry x="220" y="460" width="60" height="60" as="geometry" />
        </mxCell>
        <mxCell id="eiXm5y5_MY9LgbYOOLB_-19" value="&lt;font style=&quot;font-size: 22px&quot;&gt;SS7&lt;/font&gt;" style="ellipse;whiteSpace=wrap;html=1;aspect=fixed;fillColor=none;strokeWidth=1;fontFamily=Times New Roman;fontSize=22;" parent="1" vertex="1">
          <mxGeometry x="380" y="460" width="60" height="60" as="geometry" />
        </mxCell>
        <mxCell id="eiXm5y5_MY9LgbYOOLB_-20" value="&lt;font style=&quot;font-size: 22px;&quot;&gt;SS7&lt;/font&gt;" style="ellipse;whiteSpace=wrap;html=1;aspect=fixed;fillColor=none;strokeWidth=1;fontFamily=Times New Roman;fontSize=22;" parent="1" vertex="1">
          <mxGeometry x="300" y="460" width="60" height="60" as="geometry" />
        </mxCell>
        <mxCell id="eiXm5y5_MY9LgbYOOLB_-27" style="rounded=0;orthogonalLoop=1;jettySize=auto;html=1;exitX=0.5;exitY=1;exitDx=0;exitDy=0;entryX=0.5;entryY=0;entryDx=0;entryDy=0;fontFamily=Times New Roman;shadow=0;" parent="1" source="eiXm5y5_MY9LgbYOOLB_-29" target="eiXm5y5_MY9LgbYOOLB_-40" edge="1">
          <mxGeometry relative="1" as="geometry" />
        </mxCell>
        <mxCell id="eiXm5y5_MY9LgbYOOLB_-28" style="edgeStyle=none;rounded=0;orthogonalLoop=1;jettySize=auto;html=1;exitX=0.5;exitY=1;exitDx=0;exitDy=0;entryX=0.5;entryY=0;entryDx=0;entryDy=0;fontFamily=Times New Roman;shadow=0;" parent="1" source="eiXm5y5_MY9LgbYOOLB_-29" target="eiXm5y5_MY9LgbYOOLB_-36" edge="1">
          <mxGeometry relative="1" as="geometry" />
        </mxCell>
        <mxCell id="eiXm5y5_MY9LgbYOOLB_-29" value="&lt;b style=&quot;font-size: 20px;&quot;&gt;U2&lt;/b&gt;" style="ellipse;whiteSpace=wrap;html=1;aspect=fixed;fillColor=none;strokeWidth=3;fontFamily=Times New Roman;fontSize=20;shadow=0;" parent="1" vertex="1">
          <mxGeometry x="560.0588235294117" y="45" width="80" height="80" as="geometry" />
        </mxCell>
        <mxCell id="eiXm5y5_MY9LgbYOOLB_-34" style="edgeStyle=none;rounded=0;orthogonalLoop=1;jettySize=auto;html=1;exitX=0.5;exitY=1;exitDx=0;exitDy=0;entryX=0.5;entryY=0;entryDx=0;entryDy=0;fontFamily=Times New Roman;" parent="1" source="eiXm5y5_MY9LgbYOOLB_-36" target="eiXm5y5_MY9LgbYOOLB_-45" edge="1">
          <mxGeometry relative="1" as="geometry" />
        </mxCell>
        <mxCell id="eiXm5y5_MY9LgbYOOLB_-35" style="edgeStyle=none;rounded=0;orthogonalLoop=1;jettySize=auto;html=1;exitX=0.5;exitY=1;exitDx=0;exitDy=0;entryX=0.5;entryY=0;entryDx=0;entryDy=0;fontFamily=Times New Roman;" parent="1" source="eiXm5y5_MY9LgbYOOLB_-36" target="eiXm5y5_MY9LgbYOOLB_-41" edge="1">
          <mxGeometry relative="1" as="geometry" />
        </mxCell>
        <mxCell id="eiXm5y5_MY9LgbYOOLB_-36" value="&lt;b style=&quot;font-size: 20px;&quot;&gt;S1&lt;/b&gt;" style="ellipse;whiteSpace=wrap;html=1;aspect=fixed;fillColor=none;strokeWidth=2;fontFamily=Times New Roman;fontSize=20;shadow=0;" parent="1" vertex="1">
          <mxGeometry x="490.0588235294117" y="250" width="80" height="80" as="geometry" />
        </mxCell>
        <mxCell id="eiXm5y5_MY9LgbYOOLB_-37" style="edgeStyle=none;rounded=0;orthogonalLoop=1;jettySize=auto;html=1;exitX=0.5;exitY=1;exitDx=0;exitDy=0;entryX=0.5;entryY=0;entryDx=0;entryDy=0;fontFamily=Times New Roman;" parent="1" source="eiXm5y5_MY9LgbYOOLB_-40" target="eiXm5y5_MY9LgbYOOLB_-46" edge="1">
          <mxGeometry relative="1" as="geometry" />
        </mxCell>
        <mxCell id="eiXm5y5_MY9LgbYOOLB_-51" style="edgeStyle=none;rounded=0;orthogonalLoop=1;jettySize=auto;html=1;exitX=0.5;exitY=1;exitDx=0;exitDy=0;entryX=0.5;entryY=0;entryDx=0;entryDy=0;fontFamily=Times New Roman;" parent="1" source="eiXm5y5_MY9LgbYOOLB_-40" target="eiXm5y5_MY9LgbYOOLB_-42" edge="1">
          <mxGeometry relative="1" as="geometry" />
        </mxCell>
        <mxCell id="eiXm5y5_MY9LgbYOOLB_-40" value="&lt;b style=&quot;font-size: 20px&quot;&gt;S2&lt;/b&gt;" style="ellipse;whiteSpace=wrap;html=1;aspect=fixed;fillColor=none;strokeWidth=2;fontFamily=Times New Roman;fontSize=20;shadow=0;" parent="1" vertex="1">
          <mxGeometry x="640.0588235294117" y="250" width="80" height="80" as="geometry" />
        </mxCell>
        <mxCell id="eiXm5y5_MY9LgbYOOLB_-41" value="&lt;font style=&quot;font-size: 22px;&quot;&gt;SS1&lt;/font&gt;" style="ellipse;whiteSpace=wrap;html=1;aspect=fixed;fillColor=none;strokeWidth=1;fontFamily=Times New Roman;fontSize=22;" parent="1" vertex="1">
          <mxGeometry x="460.0588235294117" y="461" width="60" height="60" as="geometry" />
        </mxCell>
        <mxCell id="eiXm5y5_MY9LgbYOOLB_-42" value="SS7" style="ellipse;whiteSpace=wrap;html=1;aspect=fixed;fillColor=none;strokeWidth=1;fontFamily=Times New Roman;fontSize=22;" parent="1" vertex="1">
          <mxGeometry x="620.0588235294117" y="462.5" width="60" height="60" as="geometry" />
        </mxCell>
        <mxCell id="eiXm5y5_MY9LgbYOOLB_-45" value="&lt;font style=&quot;font-size: 22px;&quot;&gt;SS2&lt;/font&gt;" style="ellipse;whiteSpace=wrap;html=1;aspect=fixed;fillColor=none;strokeWidth=1;fontFamily=Times New Roman;fontSize=22;" parent="1" vertex="1">
          <mxGeometry x="540.0588235294117" y="462.5" width="60" height="60" as="geometry" />
        </mxCell>
        <mxCell id="eiXm5y5_MY9LgbYOOLB_-46" value="&lt;font style=&quot;font-size: 22px&quot;&gt;SS8&lt;/font&gt;" style="ellipse;whiteSpace=wrap;html=1;aspect=fixed;fillColor=none;strokeWidth=1;fontFamily=Times New Roman;fontSize=22;" parent="1" vertex="1">
          <mxGeometry x="700.0588235294117" y="461" width="60" height="60" as="geometry" />
        </mxCell>
        <mxCell id="eiXm5y5_MY9LgbYOOLB_-53" value="" style="shape=curlyBracket;whiteSpace=wrap;html=1;rounded=1;strokeWidth=1;fillColor=none;fontFamily=Times New Roman;fontSize=20;" parent="1" vertex="1">
          <mxGeometry x="-135" y="395" width="30" height="125" as="geometry" />
        </mxCell>
        <mxCell id="eiXm5y5_MY9LgbYOOLB_-54" value="" style="shape=curlyBracket;whiteSpace=wrap;html=1;rounded=1;strokeWidth=1;fillColor=none;fontFamily=Times New Roman;fontSize=20;" parent="1" vertex="1">
          <mxGeometry x="-135" y="215" width="30" height="173" as="geometry" />
        </mxCell>
        <mxCell id="eiXm5y5_MY9LgbYOOLB_-55" value="" style="shape=curlyBracket;whiteSpace=wrap;html=1;rounded=1;strokeWidth=1;fillColor=none;fontFamily=Times New Roman;fontSize=20;" parent="1" vertex="1">
          <mxGeometry x="-135" y="35" width="30" height="173" as="geometry" />
        </mxCell>
        <mxCell id="eiXm5y5_MY9LgbYOOLB_-56" value="&lt;font style=&quot;font-size: 25px&quot;&gt;&lt;i style=&quot;font-size: 25px&quot;&gt;Subsystem&lt;/i&gt;&lt;/font&gt;" style="text;html=1;strokeColor=none;fillColor=none;align=center;verticalAlign=middle;whiteSpace=wrap;rounded=0;fontFamily=Times New Roman;fontSize=25;rotation=-90;" parent="1" vertex="1">
          <mxGeometry x="-210" y="451" width="90" height="20" as="geometry" />
        </mxCell>
        <mxCell id="eiXm5y5_MY9LgbYOOLB_-57" value="&lt;font style=&quot;font-size: 25px;&quot;&gt;&lt;i style=&quot;font-size: 25px;&quot;&gt;System&lt;/i&gt;&lt;/font&gt;" style="text;html=1;strokeColor=none;fillColor=none;align=center;verticalAlign=middle;whiteSpace=wrap;rounded=0;fontFamily=Times New Roman;fontSize=25;rotation=-90;" parent="1" vertex="1">
          <mxGeometry x="-210" y="295" width="90" height="20" as="geometry" />
        </mxCell>
        <mxCell id="eiXm5y5_MY9LgbYOOLB_-58" value="&lt;font style=&quot;font-size: 25px;&quot;&gt;&lt;i style=&quot;font-size: 25px;&quot;&gt;User&lt;/i&gt;&lt;/font&gt;" style="text;html=1;strokeColor=none;fillColor=none;align=center;verticalAlign=middle;whiteSpace=wrap;rounded=0;fontFamily=Times New Roman;fontSize=25;rotation=-90;" parent="1" vertex="1">
          <mxGeometry x="-210" y="115" width="90" height="20" as="geometry" />
        </mxCell>
      </root>
    </mxGraphModel>
  </diagram>
</mxfile>
